<svg width="154" height="154" viewBox="0 0 154 154" fill="none" xmlns="http://www.w3.org/2000/svg">
<g clip-path="url(#clip0)">
<path d="M76.2 153.7C118.284 153.7 152.4 119.584 152.4 77.5C152.4 35.4159 118.284 1.29999 76.2 1.29999C34.1159 1.29999 0 35.4159 0 77.5C0 119.584 34.1159 153.7 76.2 153.7Z" fill="#F9C754"/>
<path d="M122.6 90.1C119.9 90.1 117.3 90.7 115 91.7C113.8 82.6 110.4 74.9 105.8 70.2C107.1 69.9 108 69.6 108.4 69.5C110.3 68.9 111.4 68.5 112.4 67.7C115.9 64.8 116.9 57.7 113.7 52.5C111.5 48.8 107.8 47 104.1 46.5C103.7 44 103 41.6 102 39.3C102.3 37.8 102.5 36.2 102.5 34.6C102.5 22.5 93.6 12.7 82.6 12.7C77.9 12.7 73.6 14.5 70.2 17.5C69.2 17.4 68.2 17.4 67.2 17.4C57.4 17.4 48.6 20.8 41.9 26.4C39.2 25.2 36.2 24.5 33 24.5C20.9 24.5 11.1 34.3 11.1 46.4C11.1 58.5 20.9 68.4 33 68.4C33.6 68.4 34.2 68.4 34.7 68.3C35.7 69.9 36.8 71.3 38 72.7C36.9 74.6 35.8 76.6 34.7 78.9C32.3 84.2 30.8 89.1 29.9 93.3C29.9 93.3 29.1 97.4 29.1 101.2C29.1 114.7 35.9 126.7 46.3 134.2C52.5 140.4 65 144.6 79.3 144.6C98.9 144.6 115 136.7 116.5 126.6C118.4 127.2 120.4 127.6 122.4 127.6C132.8 127.6 141.2 119.2 141.2 108.8C141.3 98.5 132.9 90.1 122.6 90.1Z" fill="#A56F1F"/>
<path d="M113.6 52.6C113.9 53.9 112.9 55.4 111.8 56.2C108.1 58.8 100.6 55.4 100.6 53.1C100.6 51.4 104.6 49.9 107.7 50C109.6 50 113.1 50.6 113.6 52.6Z" fill="#32303B"/>
<path d="M105.1 70.5C105.3 70.5 105.6 70.5 106 70.5C106 70.5 106.3 70.5 106.7 70.7C110.3 71.9 113.6 78.1 113.6 78.1C114.6 80.1 115.4 81.4 115.8 83.5C116.6 87 116.2 89.9 115.8 91.5C117.2 90.8 119.4 89.9 122.1 89.7C131.3 89 137.4 96.4 137.7 96.8C143.1 103.6 141.7 111.9 141 114.8C140.9 115 140.9 115.3 140.8 115.6C138.9 122.3 131.2 125.8 125.2 127.7C126.3 126.9 132.8 122 133.7 113.4C133.9 111.8 134.7 104 129.2 99.1C124.3 94.6 116.1 94.2 109.1 98.2C110.8 93.8 111.2 90 111.3 87.5C111.4 84.4 111.6 81 110 77.2C108.7 73.9 106.5 71.7 105.1 70.5Z" fill="#32303B"/>
<path d="M110.5 55.7C112.6 62.4 109.3 69.3 103.8 71.3C99.7 72.8 94.8 71.6 91.3 68.2C92.6 68.4 98 69 103.4 65.5C108.6 62.1 110.2 57 110.5 55.7Z" fill="#32303B"/>
<path d="M34.7 68.3C33.5 68.4 31.7 68.4 29.6 68.2C27.1 67.9 22.7 67.3 18.5 64C14.9 61.1 13.4 57.6 12.6 55.7C11.9 54 9.3 47.5 11.7 40.1C14.1 32.5 21.7 25 31.8 24.5C43.9 23.9 51 33.7 51.5 34.3C50.6 33.6 43.2 27.9 33.6 30.3C33.1 30.4 23.3 33 20.2 41.2C16.8 49.9 22.2 62.3 34.7 68.3Z" fill="#32303B"/>
<path d="M98.8 103.7C98.8 103.7 98.8 103.6 98.8 103.7C98.9 103.7 98.8 103.9 98.8 103.9C98.7 103.9 98.7 103.9 98.7 103.8C98.6 103.7 98.7 103.4 98.7 103.4C98.9 102.9 98.7 94.6 98.1 91.1C97.7 88.9 96.5 85.3 92.5 81.3C93.2 85.9 93.8 92.1 92.9 99.4C92.2 105.2 90.9 110.1 89.5 113.9C91.7 112.5 99.4 108.3 107.8 110.8C109.7 111.4 113.4 112.4 115.4 115.7C118.3 120.4 116.1 126.3 115.4 127.8C112.4 134.5 105.5 137.2 98 139.9C92.1 142 82.7 144.6 70.3 144.4C76.5 145.6 82 145.8 86.4 145.7C92 145.6 101.9 145.2 112.3 139.9C117.3 137.4 121.2 135.3 123.9 130.5C124.8 129 127.8 123.1 125.7 116.2C123.9 110.3 118.8 105.8 113.6 104.1C107.2 102 98.8 103.8 98.8 103.7Z" fill="#32303B"/>
<path d="M37.6 73.2C31.8 81.7 30 89.5 29.4 94.1C27.9 104.5 29 123.4 41 130C42 130.6 47 133.3 52.6 131.9C64.7 129 67.8 109.7 68.1 107.6C69.3 100.1 68.1 93.9 67.1 90.1C67.2 91.8 67.3 94.1 67.1 96.9C66.9 99.3 66.5 103.8 64.2 108.5C62.2 112.7 59.7 117.8 54.5 119.2C48.2 120.9 42.6 115.9 41.9 115.3C39.4 113.1 37.4 109.7 36.1 101.7C35.2 95.8 34.5 85.8 37.6 73.2Z" fill="#32303B"/>
<path d="M67.8 52.8C70.1 52.8 74.4 52.4 78.8 49.8C81 48.5 82.6 47 83.8 45.8C84.4 50.2 81.8 54.4 77.8 55.8C74.3 57 70.2 55.8 67.8 52.8Z" fill="#32303B"/>
</g>
<defs>
<clipPath id="clip0">
<rect width="153.5" height="153.7" fill="white"/>
</clipPath>
</defs>
</svg>
