<svg width="154" height="154" viewBox="0 0 154 154" fill="none" xmlns="http://www.w3.org/2000/svg">
<g clip-path="url(#clip0)">
<path d="M76.2 153.7C118.284 153.7 152.4 119.584 152.4 77.5C152.4 35.4159 118.284 1.29999 76.2 1.29999C34.1159 1.29999 0 35.4159 0 77.5C0 119.584 34.1159 153.7 76.2 153.7Z" fill="#662D91"/>
<path d="M122.6 88.6C119.9 88.6 117.3 89.2 115 90.2C113.8 81.3 110.4 73.7 105.8 69.1C107.1 68.8 108 68.5 108.4 68.4C110.3 67.8 111.4 67.5 112.4 66.6C115.9 63.8 116.9 56.8 113.7 51.7C111.5 48.1 107.8 46.3 104.1 45.8C103.7 43.4 103 41 102 38.8C102.3 37.3 102.5 35.8 102.5 34.2C102.5 22.3 93.6 12.7 82.6 12.7C77.9 12.7 73.6 14.5 70.2 17.4C69.2 17.3 68.2 17.3 67.2 17.3C57.4 17.3 48.6 20.7 41.9 26.2C39.2 25 36.2 24.4 33 24.4C20.9 24.4 11.1 34 11.1 45.9C11.1 57.8 20.9 67.4 33 67.4C33.6 67.4 34.2 67.4 34.7 67.3C35.7 68.8 36.8 70.3 38 71.6C36.9 73.4 35.8 75.5 34.7 77.7C32.3 82.9 30.8 87.7 29.9 91.8C29.9 91.8 29.1 95.8 29.1 99.5C29.1 112.7 35.9 124.5 46.3 131.8C52.5 137.9 65 142 79.3 142C98.9 142 115 134.2 116.5 124.4C118.4 125 120.4 125.4 122.4 125.4C132.8 125.4 141.2 117.2 141.2 107C141.3 96.8 132.9 88.6 122.6 88.6Z" fill="#CAC1EE"/>
<path d="M82 143C121.488 143 153.5 110.988 153.5 71.5C153.5 32.0116 121.488 0 82 0C42.5116 0 10.5 32.0116 10.5 71.5C10.5 110.988 42.5116 143 82 143Z" fill="#CAC1EE"/>
<path d="M113.1 52.8C113.4 54.1 112.4 55.6 111.3 56.4C107.6 59 100.1 55.6 100.1 53.3C100.1 51.6 104.1 50.1 107.2 50.2C109.1 50.1 112.6 50.7 113.1 52.8Z" fill="#662D91"/>
<path d="M104.6 70.6C104.8 70.6 105.1 70.6 105.5 70.6C105.5 70.6 105.8 70.6 106.2 70.8C109.8 72 113.1 78.2 113.1 78.2C114.1 80.2 114.9 81.5 115.3 83.6C116.1 87.1 115.7 90 115.3 91.6C116.7 90.9 118.9 90 121.6 89.8C130.8 89.1 136.9 96.5 137.2 96.9C142.6 103.7 141.2 112 140.5 114.9C140.4 115.1 140.4 115.4 140.3 115.7C138.4 122.4 130.7 125.9 124.7 127.8C125.8 127 132.3 122.1 133.2 113.5C133.4 111.9 134.2 104.1 128.7 99.2C123.8 94.7 115.6 94.3 108.6 98.3C110.3 93.9 110.7 90.1 110.8 87.6C110.9 84.5 111.1 81.1 109.5 77.3C108.2 74 106 71.8 104.6 70.6Z" fill="#662D91"/>
<path d="M110 55.9C112.1 62.6 108.8 69.5 103.3 71.5C99.2 73 94.3 71.8 90.8 68.4C92.1 68.6 97.5 69.2 102.9 65.7C108.1 62.3 109.7 57.2 110 55.9Z" fill="#662D91"/>
<path d="M34.2 67.5C33 67.6 31.2 67.6 29.1 67.4C26.6 67.1 22.2 66.5 18 63.2C14.4 60.3 12.9 56.8 12.1 54.9C11.4 53.2 8.8 46.7 11.2 39.3C13.6 31.7 21.2 24.2 31.3 23.7C43.5 23 50.6 32.8 51 33.4C50.1 32.7 42.7 27 33.1 29.4C32.6 29.5 22.8 32.1 19.7 40.3C16.3 49.1 21.7 61.5 34.2 67.5Z" fill="#662D91"/>
<path d="M98.3 103.8C98.4 103.8 98.3 104 98.3 104C98.2 104 98.2 104 98.2 103.9C98.1 103.8 98.2 103.5 98.2 103.5C98.4 103 98.2 94.7 97.6 91.2C97.2 89 96 85.4 92 81.4C92.7 86 93.3 92.2 92.4 99.5C91.7 105.3 90.4 110.2 89 114C91.2 112.6 98.9 108.4 107.3 110.9C109.2 111.5 112.9 112.5 114.9 115.8C117.8 120.5 115.6 126.4 114.9 127.9C111.9 134.6 105 137.3 97.5 140C91.6 142.1 82.2 144.7 69.8 144.5C76 145.7 81.5 145.9 85.9 145.8C91.5 145.7 101.4 145.3 111.8 140C116.8 137.5 120.7 135.4 123.4 130.6C124.3 129.1 127.3 123.2 125.2 116.3C123.4 110.4 118.3 105.9 113.1 104.2C106.7 102.1 98.3 104 98.3 103.8Z" fill="#662D91"/>
<path d="M37.1 73.3C31.3 81.8 29.5 89.6 28.9 94.2C27.5 104.7 28.5 123.5 40.5 130.1C41.5 130.7 46.5 133.4 52.1 132C64.2 129.1 67.3 109.8 67.6 107.7C68.8 100.2 67.6 94 66.6 90.2C66.7 91.9 66.8 94.2 66.6 97C66.4 99.4 66 103.9 63.7 108.6C61.7 112.8 59.2 117.9 54 119.3C47.7 121 42.1 116 41.4 115.4C39 113.3 37 110 35.7 102C34.7 95.9 34 85.9 37.1 73.3Z" fill="#662D91"/>
<path d="M67.8 52.2C70.1 52.2 74.4 51.8 78.8 49.2C81 47.9 82.6 46.4 83.8 45.2C84.4 49.6 81.8 53.8 77.8 55.2C74.3 56.4 70.3 55.2 67.8 52.2Z" fill="#662D91"/>
</g>
<defs>
<clipPath id="clip0">
<rect width="153.5" height="153.7" fill="white"/>
</clipPath>
</defs>
</svg>
