<?xml version="1.0" encoding="utf-8"?>
<!-- Generator: Adobe Illustrator 16.0.0, SVG Export Plug-In . SVG Version: 6.00 Build 0)  -->
<!DOCTYPE svg PUBLIC "-//W3C//DTD SVG 1.1//EN" "http://www.w3.org/Graphics/SVG/1.1/DTD/svg11.dtd">
<svg version="1.1" id="Layer_1" xmlns="http://www.w3.org/2000/svg" xmlns:xlink="http://www.w3.org/1999/xlink" x="0px" y="0px"
	 width="150px" height="70px" viewBox="0 0.557 150 70" enable-background="new 0 0.557 150 70" xml:space="preserve">
<g>
	<path fill="#EF5323" d="M18.637,35.39l-5.303,24.667H7.802l5.456-25.436h-0.461c-4.073,0-7.223,1.576-7.223,7.762
		c0,1.959,0.5,2.267,0.538,2.611C3.46,44.994,2,44.035,2,41.269c0-5.11,3.611-9.989,13.102-9.989c4.649,0,6.071,0.884,9.836,0.884
		c1.767,0,3.419-0.384,4.457-0.807c-0.077,3.343-1.729,4.878-4.803,4.878C22.709,36.234,20.711,35.851,18.637,35.39z"/>
	<path fill="#EF5323" d="M28.395,40.846l-0.499,2.382c1.345-1.153,2.805-2.382,4.649-2.382c1.729,0,2.651,1.421,2.651,2.882
		c0,1.345-0.884,2.806-2.767,2.806c-2.151,0-1.076-2.537-2.229-2.537c-1.152,0-1.844,0.576-2.805,1.459l-3.072,14.602H18.79
		l4.073-19.211H28.395L28.395,40.846z"/>
	<path fill="#29AECC" d="M72.271,59.289c3.997,0.884,8.03,4.955,12.911,4.955c1.036,0,2.112-0.152,3.228-0.614
		c-0.384,3.688-1.921,6.032-3.996,6.032c-5.494,0-10.335-8.722-17.136-8.722c-0.308,0-0.576,0-0.884,0.038l5.725-26.625
		c-3.343,1.383-5.379,4.264-5.379,8.375c0,1.959,0.5,2.268,0.538,2.613c-2.651,0-4.111-0.96-4.111-3.727
		c0-5.11,7.07-9.99,13.486-9.99c0.537,0,1.037,0.039,1.537,0.077L72.271,59.289z"/>
	<polygon fill="#29AECC" points="89.677,31.241 85.643,31.241 82.146,38.502 85.027,38.502 	"/>
	<path fill="#29AECC" d="M125.602,40.846l-3.805,17.828c2.344-0.846,3.766-2.152,4.842-5.495h1.613
		c-1.498,5.071-4.418,6.532-6.801,7.185l-0.576,2.768c-1.152,5.494-4.38,6.531-6.916,6.531c-2.344,0-4.303-1.229-4.303-3.727
		c0-3.229,3.381-4.841,6.263-5.725l0.46-2.037c-1.113,1.191-2.611,2.113-4.609,2.113c-2.612,0-5.11-1.613-5.11-6.187
		c0-5.187,3.188-13.448,9.875-13.448c2.19,0,3.112,0.846,3.112,1.961v0.229l0.422-1.998L125.602,40.846L125.602,40.846z
		 M113.075,66.666c0.807,0,1.729-1.153,2.229-3.42l0.229-1.113c-1.959,0.73-3.767,1.729-3.767,3.266
		C111.77,65.936,112.23,66.666,113.075,66.666z M112.346,53.563c0,2.958,1.229,2.997,1.92,2.997c1.039,0,2.536-1.038,3.074-2.997
		l1.959-9.106c-0.039-0.422-0.346-1.422-1.574-1.422C114.458,43.035,112.346,49.953,112.346,53.563z"/>
	<path fill="#29AECC" d="M141.314,46.647c0.153,0.077,0.308,0.077,0.422,0.077c1.768,0,4.266-1.152,5.918-2.305L148,45.457
		c-1.46,1.574-3.996,2.728-6.801,3.188c-0.615,7.108-4.457,11.565-9.184,11.565c-3.574,0-6.146-1.691-6.146-6.071
		c0-4.418,2.611-13.64,10.527-13.64C139.701,40.5,141.314,42.613,141.314,46.647z M133.016,33.354c1.269,0,2.344,1.076,2.344,2.344
		c0,1.307-1.076,2.343-2.344,2.343c-1.307,0-2.344-1.036-2.344-2.343C130.671,34.43,131.709,33.354,133.016,33.354z M138.01,48.761
		c-0.807-0.192-1.037-0.845-1.037-1.614c0-1.076,0.5-1.768,1.19-2.074c-0.077-1.615-0.46-2.229-1.46-2.229
		c-2.729,0-5.11,7.03-5.11,10.796c0,2.536,0.5,3.111,1.959,3.111C135.436,56.752,137.396,53.295,138.01,48.761z M139.932,33.354
		c1.268,0,2.344,1.076,2.344,2.344c0,1.307-1.076,2.343-2.344,2.343c-1.307,0-2.345-1.036-2.345-2.343
		C137.587,34.43,138.625,33.354,139.932,33.354z"/>
	<path fill="#EF5323" d="M57.288,40.654c-1.921,0-3.381,0.691-4.496,1.652l0.615-2.882h-5.533L44.956,53.18h-0.001
		c-0.004,0.014-0.009,0.025-0.014,0.04l-0.527,2.493c-0.238,1.07-1.192,1.8-2.252,1.8c-0.165,0-0.331-0.019-0.498-0.054
		c-1.245-0.272-2.032-1.495-1.758-2.731l0.09-0.429c0.021-0.122,0.046-0.25,0.078-0.389l2.767-13.063h-5.533L34.695,53.18
		c-0.192,0.922-0.307,1.768-0.307,2.498c0,3.229,1.806,4.609,4.111,4.609c1.386,0,3.545-0.379,5.478-2.5l-2.52,11.875l5.802-1.383
		l1.998-9.375c0.423,0.73,1.345,1.383,3.266,1.383c7.454,0,9.452-8.375,9.452-13.562C61.976,42.152,59.901,40.654,57.288,40.654z
		 M51.333,56.945c-0.883,0-1.306-0.462-1.46-0.885l2.267-10.758c0.73-1.229,1.806-1.882,2.651-1.882
		c0.691,0,1.921,0.229,1.921,3.188C56.712,50.221,55.367,56.945,51.333,56.945z"/>
	<path fill="#29AECC" d="M107.159,53.18c-0.845,1.998-1.537,3.381-3.228,3.381c-1.154,0-1.537-0.652-1.537-1.613
		c0-2.151,1.844-6.802,1.844-9.914c0-3.074-1.807-4.342-4.266-4.342c-1.19,0-2.881,0.309-4.494,2.151l0.422-1.998h-5.533
		L87.75,53.197c-0.023,0.077-0.049,0.15-0.075,0.226l-0.481,2.26c-0.237,1.069-1.191,1.799-2.252,1.799
		c-0.164,0-0.33-0.017-0.498-0.054c-1.244-0.271-2.031-1.494-1.758-2.729l2.955-13.853h-5.529L77.498,53.18
		c-0.191,0.922-0.307,1.768-0.307,2.498c0,3.229,1.806,4.611,4.11,4.611c1.386,0,3.542-0.381,5.476-2.498l-0.482,2.266h5.533
		l2.613-12.334c0.576-1.921,1.613-3.535,2.996-3.535c0.922,0,1.383,0.691,1.383,1.959c0,2.459-1.729,7.186-1.729,9.799
		c0,2.189,1.191,4.34,4.534,4.34c2.037,0,4.995-0.807,7.146-7.107h-1.612V53.18z"/>
	<g>
		<g>
			<path fill="#EF5323" d="M124.406,7.783c5.627,7.181,4.367,17.562-2.813,23.189c-7.182,5.626-17.565,4.369-23.194-2.813
				c-5.623-7.182-4.364-17.563,2.816-23.191C108.396-0.659,118.779,0.6,124.406,7.783z"/>
			<polygon fill="#EF5323" points="109.232,34.346 120.588,29.689 127.089,37.986 			"/>
		</g>
		<g>
			<path fill="#FFFFFF" d="M114.882,13.118l-1.001-0.001l0.003-4.462l-4.795-0.001l-0.001,4.463h-1.001l0.002-4.963
				c0-0.277,0.224-0.5,0.5-0.5l0,0l5.798,0.001c0.133,0,0.26,0.053,0.354,0.146c0.094,0.094,0.146,0.222,0.146,0.354L114.882,13.118
				z"/>
			<path fill="#FFFFFF" d="M122.693,22.587c-0.002,1.779-1.445,3.22-3.226,3.22L103.492,25.8c-1.781-0.001-3.223-1.443-3.223-3.223
				l0.002-8.696c0.002-1.781,1.444-3.224,3.227-3.224l15.977,0.007c1.779,0,3.223,1.443,3.221,3.223L122.693,22.587z"/>
		</g>
	</g>
	<circle fill="#EF5323" cx="41.12" cy="35.788" r="2.339"/>
</g>
</svg>
