<svg xmlns="http://www.w3.org/2000/svg" width="200" height="200" viewBox="0 0 200 200">
  <defs>
    <rect id="rect-1" width="200" height="200" x="0" y="0"/>
  </defs>
  <g>
    <g opacity=".25">
      <ellipse cx="4" cy="4" fill="rgb(68,68,68)" rx="4" ry="4" transform="matrix(1 0 0 -1 0 8)"/>
      <ellipse cx="4" cy="28" fill="rgb(68,68,68)" rx="4" ry="4" transform="matrix(1 0 0 -1 0 56)"/>
      <ellipse cx="4" cy="52" fill="rgb(68,68,68)" rx="4" ry="4" transform="matrix(1 0 0 -1 0 104)"/>
      <ellipse cx="4" cy="76" fill="rgb(68,68,68)" rx="4" ry="4" transform="matrix(1 0 0 -1 0 152)"/>
      <ellipse cx="4" cy="100" fill="rgb(68,68,68)" rx="4" ry="4" transform="matrix(1 0 0 -1 0 200)"/>
      <ellipse cx="4" cy="124" fill="rgb(68,68,68)" rx="4" ry="4" transform="matrix(1 0 0 -1 0 248)"/>
      <ellipse cx="4" cy="148" fill="rgb(68,68,68)" rx="4" ry="4" transform="matrix(1 0 0 -1 0 296)"/>
      <ellipse cx="4" cy="172" fill="rgb(68,68,68)" rx="4" ry="4" transform="matrix(1 0 0 -1 0 344)"/>
      <ellipse cx="4" cy="196" fill="rgb(68,68,68)" rx="4" ry="4" transform="matrix(1 0 0 -1 0 392)"/>
      <ellipse cx="76" cy="4" fill="rgb(68,68,68)" rx="4" ry="4" transform="matrix(1 0 0 -1 0 8)"/>
      <ellipse cx="76" cy="28" fill="rgb(68,68,68)" rx="4" ry="4" transform="matrix(1 0 0 -1 0 56)"/>
      <ellipse cx="76" cy="52" fill="rgb(68,68,68)" rx="4" ry="4" transform="matrix(1 0 0 -1 0 104)"/>
      <ellipse cx="76" cy="76" fill="rgb(68,68,68)" rx="4" ry="4" transform="matrix(1 0 0 -1 0 152)"/>
      <ellipse cx="76" cy="100" fill="rgb(68,68,68)" rx="4" ry="4" transform="matrix(1 0 0 -1 0 200)"/>
      <ellipse cx="76" cy="124" fill="rgb(68,68,68)" rx="4" ry="4" transform="matrix(1 0 0 -1 0 248)"/>
      <ellipse cx="76" cy="148" fill="rgb(68,68,68)" rx="4" ry="4" transform="matrix(1 0 0 -1 0 296)"/>
      <ellipse cx="76" cy="172" fill="rgb(68,68,68)" rx="4" ry="4" transform="matrix(1 0 0 -1 0 344)"/>
      <ellipse cx="76" cy="196" fill="rgb(68,68,68)" rx="4" ry="4" transform="matrix(1 0 0 -1 0 392)"/>
      <ellipse cx="148" cy="4" fill="rgb(68,68,68)" rx="4" ry="4" transform="matrix(1 0 0 -1 0 8)"/>
      <ellipse cx="148" cy="28" fill="rgb(68,68,68)" rx="4" ry="4" transform="matrix(1 0 0 -1 0 56)"/>
      <ellipse cx="148" cy="52" fill="rgb(68,68,68)" rx="4" ry="4" transform="matrix(1 0 0 -1 0 104)"/>
      <ellipse cx="148" cy="76" fill="rgb(68,68,68)" rx="4" ry="4" transform="matrix(1 0 0 -1 0 152)"/>
      <ellipse cx="148" cy="100" fill="rgb(68,68,68)" rx="4" ry="4" transform="matrix(1 0 0 -1 0 200)"/>
      <ellipse cx="148" cy="124" fill="rgb(68,68,68)" rx="4" ry="4" transform="matrix(1 0 0 -1 0 248)"/>
      <ellipse cx="148" cy="148" fill="rgb(68,68,68)" rx="4" ry="4" transform="matrix(1 0 0 -1 0 296)"/>
      <ellipse cx="148" cy="172" fill="rgb(68,68,68)" rx="4" ry="4" transform="matrix(1 0 0 -1 0 344)"/>
      <ellipse cx="148" cy="196" fill="rgb(68,68,68)" rx="4" ry="4" transform="matrix(1 0 0 -1 0 392)"/>
      <ellipse cx="28" cy="4" fill="rgb(68,68,68)" rx="4" ry="4" transform="matrix(1 0 0 -1 0 8)"/>
      <ellipse cx="28" cy="28" fill="rgb(68,68,68)" rx="4" ry="4" transform="matrix(1 0 0 -1 0 56)"/>
      <ellipse cx="28" cy="52" fill="rgb(68,68,68)" rx="4" ry="4" transform="matrix(1 0 0 -1 0 104)"/>
      <ellipse cx="28" cy="76" fill="rgb(68,68,68)" rx="4" ry="4" transform="matrix(1 0 0 -1 0 152)"/>
      <ellipse cx="28" cy="100" fill="rgb(68,68,68)" rx="4" ry="4" transform="matrix(1 0 0 -1 0 200)"/>
      <ellipse cx="28" cy="124" fill="rgb(68,68,68)" rx="4" ry="4" transform="matrix(1 0 0 -1 0 248)"/>
      <ellipse cx="28" cy="148" fill="rgb(68,68,68)" rx="4" ry="4" transform="matrix(1 0 0 -1 0 296)"/>
      <ellipse cx="28" cy="172" fill="rgb(68,68,68)" rx="4" ry="4" transform="matrix(1 0 0 -1 0 344)"/>
      <ellipse cx="28" cy="196" fill="rgb(68,68,68)" rx="4" ry="4" transform="matrix(1 0 0 -1 0 392)"/>
      <ellipse cx="100" cy="4" fill="rgb(68,68,68)" rx="4" ry="4" transform="matrix(1 0 0 -1 0 8)"/>
      <ellipse cx="100" cy="28" fill="rgb(68,68,68)" rx="4" ry="4" transform="matrix(1 0 0 -1 0 56)"/>
      <ellipse cx="100" cy="52" fill="rgb(68,68,68)" rx="4" ry="4" transform="matrix(1 0 0 -1 0 104)"/>
      <ellipse cx="100" cy="76" fill="rgb(68,68,68)" rx="4" ry="4" transform="matrix(1 0 0 -1 0 152)"/>
      <ellipse cx="100" cy="100" fill="rgb(68,68,68)" rx="4" ry="4" transform="matrix(1 0 0 -1 0 200)"/>
      <ellipse cx="100" cy="124" fill="rgb(68,68,68)" rx="4" ry="4" transform="matrix(1 0 0 -1 0 248)"/>
      <ellipse cx="100" cy="148" fill="rgb(68,68,68)" rx="4" ry="4" transform="matrix(1 0 0 -1 0 296)"/>
      <ellipse cx="100" cy="172" fill="rgb(68,68,68)" rx="4" ry="4" transform="matrix(1 0 0 -1 0 344)"/>
      <ellipse cx="100" cy="196" fill="rgb(68,68,68)" rx="4" ry="4" transform="matrix(1 0 0 -1 0 392)"/>
      <ellipse cx="172" cy="4" fill="rgb(68,68,68)" rx="4" ry="4" transform="matrix(1 0 0 -1 0 8)"/>
      <ellipse cx="172" cy="28" fill="rgb(68,68,68)" rx="4" ry="4" transform="matrix(1 0 0 -1 0 56)"/>
      <ellipse cx="172" cy="52" fill="rgb(68,68,68)" rx="4" ry="4" transform="matrix(1 0 0 -1 0 104)"/>
      <ellipse cx="172" cy="76" fill="rgb(68,68,68)" rx="4" ry="4" transform="matrix(1 0 0 -1 0 152)"/>
      <ellipse cx="172" cy="100" fill="rgb(68,68,68)" rx="4" ry="4" transform="matrix(1 0 0 -1 0 200)"/>
      <ellipse cx="172" cy="124" fill="rgb(68,68,68)" rx="4" ry="4" transform="matrix(1 0 0 -1 0 248)"/>
      <ellipse cx="172" cy="148" fill="rgb(68,68,68)" rx="4" ry="4" transform="matrix(1 0 0 -1 0 296)"/>
      <ellipse cx="172" cy="172" fill="rgb(68,68,68)" rx="4" ry="4" transform="matrix(1 0 0 -1 0 344)"/>
      <ellipse cx="172" cy="196" fill="rgb(68,68,68)" rx="4" ry="4" transform="matrix(1 0 0 -1 0 392)"/>
      <ellipse cx="52" cy="4" fill="rgb(68,68,68)" rx="4" ry="4" transform="matrix(1 0 0 -1 0 8)"/>
      <ellipse cx="52" cy="28" fill="rgb(68,68,68)" rx="4" ry="4" transform="matrix(1 0 0 -1 0 56)"/>
      <ellipse cx="52" cy="52" fill="rgb(68,68,68)" rx="4" ry="4" transform="matrix(1 0 0 -1 0 104)"/>
      <ellipse cx="52" cy="76" fill="rgb(68,68,68)" rx="4" ry="4" transform="matrix(1 0 0 -1 0 152)"/>
      <ellipse cx="52" cy="100" fill="rgb(68,68,68)" rx="4" ry="4" transform="matrix(1 0 0 -1 0 200)"/>
      <ellipse cx="52" cy="124" fill="rgb(68,68,68)" rx="4" ry="4" transform="matrix(1 0 0 -1 0 248)"/>
      <ellipse cx="52" cy="148" fill="rgb(68,68,68)" rx="4" ry="4" transform="matrix(1 0 0 -1 0 296)"/>
      <ellipse cx="52" cy="172" fill="rgb(68,68,68)" rx="4" ry="4" transform="matrix(1 0 0 -1 0 344)"/>
      <ellipse cx="52" cy="196" fill="rgb(68,68,68)" rx="4" ry="4" transform="matrix(1 0 0 -1 0 392)"/>
      <ellipse cx="124" cy="4" fill="rgb(68,68,68)" rx="4" ry="4" transform="matrix(1 0 0 -1 0 8)"/>
      <ellipse cx="124" cy="28" fill="rgb(68,68,68)" rx="4" ry="4" transform="matrix(1 0 0 -1 0 56)"/>
      <ellipse cx="124" cy="52" fill="rgb(68,68,68)" rx="4" ry="4" transform="matrix(1 0 0 -1 0 104)"/>
      <ellipse cx="124" cy="76" fill="rgb(68,68,68)" rx="4" ry="4" transform="matrix(1 0 0 -1 0 152)"/>
      <ellipse cx="124" cy="100" fill="rgb(68,68,68)" rx="4" ry="4" transform="matrix(1 0 0 -1 0 200)"/>
      <ellipse cx="124" cy="124" fill="rgb(68,68,68)" rx="4" ry="4" transform="matrix(1 0 0 -1 0 248)"/>
      <ellipse cx="124" cy="148" fill="rgb(68,68,68)" rx="4" ry="4" transform="matrix(1 0 0 -1 0 296)"/>
      <ellipse cx="124" cy="172" fill="rgb(68,68,68)" rx="4" ry="4" transform="matrix(1 0 0 -1 0 344)"/>
      <ellipse cx="124" cy="196" fill="rgb(68,68,68)" rx="4" ry="4" transform="matrix(1 0 0 -1 0 392)"/>
      <ellipse cx="196" cy="4" fill="rgb(68,68,68)" rx="4" ry="4" transform="matrix(1 0 0 -1 0 8)"/>
      <ellipse cx="196" cy="28" fill="rgb(68,68,68)" rx="4" ry="4" transform="matrix(1 0 0 -1 0 56)"/>
      <ellipse cx="196" cy="52" fill="rgb(68,68,68)" rx="4" ry="4" transform="matrix(1 0 0 -1 0 104)"/>
      <ellipse cx="196" cy="76" fill="rgb(68,68,68)" rx="4" ry="4" transform="matrix(1 0 0 -1 0 152)"/>
      <ellipse cx="196" cy="100" fill="rgb(68,68,68)" rx="4" ry="4" transform="matrix(1 0 0 -1 0 200)"/>
      <ellipse cx="196" cy="124" fill="rgb(68,68,68)" rx="4" ry="4" transform="matrix(1 0 0 -1 0 248)"/>
      <ellipse cx="196" cy="148" fill="rgb(68,68,68)" rx="4" ry="4" transform="matrix(1 0 0 -1 0 296)"/>
      <ellipse cx="196" cy="172" fill="rgb(68,68,68)" rx="4" ry="4" transform="matrix(1 0 0 -1 0 344)"/>
      <ellipse cx="196" cy="196" fill="rgb(68,68,68)" rx="4" ry="4" transform="matrix(1 0 0 -1 0 392)"/>
    </g>
  </g>
</svg>
